<?xml version="1.0" standalone="no"?>
<!DOCTYPE svg PUBLIC "-//W3C//DTD SVG 20010904//EN"
 "http://www.w3.org/TR/2001/REC-SVG-20010904/DTD/svg10.dtd">
<svg version="1.0" xmlns="http://www.w3.org/2000/svg"
 width="1024.000000pt" height="1024.000000pt" viewBox="0 0 1024.000000 1024.000000"
 preserveAspectRatio="xMidYMid meet">
<metadata>
Created by potrace 1.14, written by Peter Selinger 2001-2017
</metadata>
<g transform="translate(0.000000,1024.000000) scale(0.100000,-0.100000)"
fill="#000000" stroke="none">
<path d="M7235 9524 c-102 -12 -137 -21 -229 -60 -95 -40 -120 -56 -193 -122
-96 -88 -142 -156 -175 -261 l-23 -72 -80 3 -80 3 -3 -1392 -2 -1392 37 -10
c21 -5 56 -13 78 -18 57 -13 -842 -22 -2420 -25 -1229 -2 -1320 -1 -1323 15
-3 15 20 17 270 19 l273 3 0 1325 0 1325 -22 70 c-29 93 -67 149 -166 250 -75
77 -91 87 -197 135 -110 49 -122 52 -280 71 -152 18 -173 23 -265 64 -89 39
-116 46 -238 61 -272 33 -493 -14 -667 -142 -47 -35 -104 -88 -128 -118 -52
-68 -97 -172 -106 -250 l-8 -58 -59 6 -59 7 0 -3563 c0 -2348 3 -3591 10
-3644 20 -158 89 -276 220 -372 75 -56 227 -152 240 -152 4 0 20 -33 35 -72
52 -134 144 -226 373 -371 106 -66 255 -113 407 -127 103 -9 140 -8 265 9 132
17 155 23 260 70 105 47 123 59 198 134 90 88 132 153 165 250 22 62 22 62 25
1730 l3 1667 482 0 c265 0 958 3 1541 7 l1058 6 -3 -1379 c-3 -1308 -3 -1382
15 -1439 29 -97 60 -146 148 -237 l83 -87 202 -90 c111 -50 215 -91 231 -91
27 0 35 -8 66 -62 52 -94 184 -219 276 -264 307 -148 324 -154 487 -173 136
-15 166 -16 275 -4 173 19 311 71 423 160 148 115 214 237 234 428 9 82 11
1057 9 3865 l-3 3755 -32 77 c-68 162 -206 287 -394 357 -118 43 -230 59 -484
67 -82 3 -154 9 -160 14 -7 6 -54 26 -106 45 -88 33 -127 40 -324 59 -22 2
-94 -3 -160 -10z"/>
</g>
</svg>
